<mxfile host="app.diagrams.net" modified="2022-10-28T00:24:33.338Z" agent="5.0 (Macintosh; Intel Mac OS X 10_15_7) AppleWebKit/537.36 (KHTML, like Gecko) Chrome/106.0.0.0 Safari/537.36" etag="sBP0FAtEyAz3YmEl6Vjr" version="20.5.1" type="github">
  <diagram id="C5RBs43oDa-KdzZeNtuy" name="Page-1">
    <mxGraphModel dx="3530" dy="1754" grid="1" gridSize="10" guides="1" tooltips="1" connect="1" arrows="1" fold="1" page="1" pageScale="1" pageWidth="827" pageHeight="1169" math="0" shadow="0">
      <root>
        <mxCell id="WIyWlLk6GJQsqaUBKTNV-0" />
        <mxCell id="WIyWlLk6GJQsqaUBKTNV-1" parent="WIyWlLk6GJQsqaUBKTNV-0" />
        <mxCell id="z9Loh3sXfeO9TU2HBYBj-2" style="edgeStyle=orthogonalEdgeStyle;rounded=0;orthogonalLoop=1;jettySize=auto;html=1;entryX=0.5;entryY=0;entryDx=0;entryDy=0;" edge="1" parent="WIyWlLk6GJQsqaUBKTNV-1" source="z9Loh3sXfeO9TU2HBYBj-0" target="z9Loh3sXfeO9TU2HBYBj-5">
          <mxGeometry relative="1" as="geometry">
            <mxPoint x="405" y="150" as="targetPoint" />
          </mxGeometry>
        </mxCell>
        <mxCell id="z9Loh3sXfeO9TU2HBYBj-0" value="Start&lt;br&gt;Plans/Pricing Page&lt;br&gt;Web/Desktop/Android" style="ellipse;whiteSpace=wrap;html=1;" vertex="1" parent="WIyWlLk6GJQsqaUBKTNV-1">
          <mxGeometry x="700" y="10" width="230" height="90" as="geometry" />
        </mxCell>
        <mxCell id="z9Loh3sXfeO9TU2HBYBj-7" value="" style="edgeStyle=orthogonalEdgeStyle;rounded=0;orthogonalLoop=1;jettySize=auto;html=1;" edge="1" parent="WIyWlLk6GJQsqaUBKTNV-1" source="z9Loh3sXfeO9TU2HBYBj-5">
          <mxGeometry relative="1" as="geometry">
            <mxPoint x="130" y="320" as="targetPoint" />
          </mxGeometry>
        </mxCell>
        <mxCell id="z9Loh3sXfeO9TU2HBYBj-106" style="edgeStyle=orthogonalEdgeStyle;rounded=0;orthogonalLoop=1;jettySize=auto;html=1;exitX=1;exitY=0.5;exitDx=0;exitDy=0;" edge="1" parent="WIyWlLk6GJQsqaUBKTNV-1" source="z9Loh3sXfeO9TU2HBYBj-5">
          <mxGeometry relative="1" as="geometry">
            <mxPoint x="1853" y="340" as="targetPoint" />
          </mxGeometry>
        </mxCell>
        <mxCell id="z9Loh3sXfeO9TU2HBYBj-5" value="Is paid user?" style="rhombus;whiteSpace=wrap;html=1;" vertex="1" parent="WIyWlLk6GJQsqaUBKTNV-1">
          <mxGeometry x="690" y="170" width="250" height="80" as="geometry" />
        </mxCell>
        <mxCell id="z9Loh3sXfeO9TU2HBYBj-15" style="edgeStyle=orthogonalEdgeStyle;rounded=0;orthogonalLoop=1;jettySize=auto;html=1;" edge="1" parent="WIyWlLk6GJQsqaUBKTNV-1" source="z9Loh3sXfeO9TU2HBYBj-8" target="z9Loh3sXfeO9TU2HBYBj-14">
          <mxGeometry relative="1" as="geometry" />
        </mxCell>
        <mxCell id="z9Loh3sXfeO9TU2HBYBj-18" style="edgeStyle=orthogonalEdgeStyle;rounded=0;orthogonalLoop=1;jettySize=auto;html=1;" edge="1" parent="WIyWlLk6GJQsqaUBKTNV-1" source="z9Loh3sXfeO9TU2HBYBj-8" target="z9Loh3sXfeO9TU2HBYBj-17">
          <mxGeometry relative="1" as="geometry" />
        </mxCell>
        <mxCell id="z9Loh3sXfeO9TU2HBYBj-20" style="edgeStyle=orthogonalEdgeStyle;rounded=0;orthogonalLoop=1;jettySize=auto;html=1;" edge="1" parent="WIyWlLk6GJQsqaUBKTNV-1" source="z9Loh3sXfeO9TU2HBYBj-8" target="z9Loh3sXfeO9TU2HBYBj-12">
          <mxGeometry relative="1" as="geometry" />
        </mxCell>
        <mxCell id="z9Loh3sXfeO9TU2HBYBj-8" value="Plans webview with option to attach license, extend/upgrade and license info&lt;br&gt;(banner based on no. of remaining days" style="rounded=1;whiteSpace=wrap;html=1;" vertex="1" parent="WIyWlLk6GJQsqaUBKTNV-1">
          <mxGeometry x="10" y="280" width="230" height="100" as="geometry" />
        </mxCell>
        <mxCell id="z9Loh3sXfeO9TU2HBYBj-9" value="Yes" style="text;html=1;strokeColor=none;fillColor=none;align=center;verticalAlign=middle;whiteSpace=wrap;rounded=0;" vertex="1" parent="WIyWlLk6GJQsqaUBKTNV-1">
          <mxGeometry x="150" y="160" width="60" height="30" as="geometry" />
        </mxCell>
        <mxCell id="z9Loh3sXfeO9TU2HBYBj-35" style="edgeStyle=orthogonalEdgeStyle;rounded=0;orthogonalLoop=1;jettySize=auto;html=1;exitX=0.5;exitY=1;exitDx=0;exitDy=0;startArrow=none;" edge="1" parent="WIyWlLk6GJQsqaUBKTNV-1" source="z9Loh3sXfeO9TU2HBYBj-97" target="z9Loh3sXfeO9TU2HBYBj-27">
          <mxGeometry relative="1" as="geometry">
            <mxPoint x="-680.0000000000002" y="530" as="sourcePoint" />
            <Array as="points">
              <mxPoint x="-565" y="580" />
              <mxPoint x="-767" y="580" />
            </Array>
          </mxGeometry>
        </mxCell>
        <mxCell id="z9Loh3sXfeO9TU2HBYBj-62" style="edgeStyle=orthogonalEdgeStyle;rounded=0;orthogonalLoop=1;jettySize=auto;html=1;" edge="1" parent="WIyWlLk6GJQsqaUBKTNV-1" source="z9Loh3sXfeO9TU2HBYBj-12" target="z9Loh3sXfeO9TU2HBYBj-61">
          <mxGeometry relative="1" as="geometry" />
        </mxCell>
        <mxCell id="z9Loh3sXfeO9TU2HBYBj-12" value="Click License Info" style="rounded=1;whiteSpace=wrap;html=1;" vertex="1" parent="WIyWlLk6GJQsqaUBKTNV-1">
          <mxGeometry x="10" y="470" width="230" height="100" as="geometry" />
        </mxCell>
        <mxCell id="z9Loh3sXfeO9TU2HBYBj-80" style="edgeStyle=orthogonalEdgeStyle;rounded=0;orthogonalLoop=1;jettySize=auto;html=1;" edge="1" parent="WIyWlLk6GJQsqaUBKTNV-1" source="z9Loh3sXfeO9TU2HBYBj-14">
          <mxGeometry relative="1" as="geometry">
            <mxPoint x="465.00000000000045" y="540" as="targetPoint" />
          </mxGeometry>
        </mxCell>
        <mxCell id="z9Loh3sXfeO9TU2HBYBj-82" style="edgeStyle=orthogonalEdgeStyle;rounded=0;orthogonalLoop=1;jettySize=auto;html=1;" edge="1" parent="WIyWlLk6GJQsqaUBKTNV-1" source="z9Loh3sXfeO9TU2HBYBj-14" target="z9Loh3sXfeO9TU2HBYBj-81">
          <mxGeometry relative="1" as="geometry" />
        </mxCell>
        <mxCell id="z9Loh3sXfeO9TU2HBYBj-14" value="Click Attach License" style="rounded=1;whiteSpace=wrap;html=1;" vertex="1" parent="WIyWlLk6GJQsqaUBKTNV-1">
          <mxGeometry x="350" y="470" width="230" height="110" as="geometry" />
        </mxCell>
        <mxCell id="z9Loh3sXfeO9TU2HBYBj-124" style="edgeStyle=orthogonalEdgeStyle;rounded=0;orthogonalLoop=1;jettySize=auto;html=1;" edge="1" parent="WIyWlLk6GJQsqaUBKTNV-1" source="z9Loh3sXfeO9TU2HBYBj-17" target="z9Loh3sXfeO9TU2HBYBj-123">
          <mxGeometry relative="1" as="geometry" />
        </mxCell>
        <mxCell id="z9Loh3sXfeO9TU2HBYBj-17" value="Buy Multiple Licenses" style="rounded=1;whiteSpace=wrap;html=1;" vertex="1" parent="WIyWlLk6GJQsqaUBKTNV-1">
          <mxGeometry x="690" y="470" width="230" height="100" as="geometry" />
        </mxCell>
        <mxCell id="z9Loh3sXfeO9TU2HBYBj-21" style="edgeStyle=orthogonalEdgeStyle;rounded=0;orthogonalLoop=1;jettySize=auto;html=1;" edge="1" parent="WIyWlLk6GJQsqaUBKTNV-1" source="z9Loh3sXfeO9TU2HBYBj-25">
          <mxGeometry relative="1" as="geometry">
            <mxPoint x="-355" y="630" as="sourcePoint" />
            <Array as="points">
              <mxPoint x="-355" y="610" />
              <mxPoint x="-355" y="660" />
              <mxPoint x="-495" y="660" />
            </Array>
            <mxPoint x="-495" y="730" as="targetPoint" />
          </mxGeometry>
        </mxCell>
        <mxCell id="z9Loh3sXfeO9TU2HBYBj-25" value="Open Extend Checkout" style="rounded=1;whiteSpace=wrap;html=1;" vertex="1" parent="WIyWlLk6GJQsqaUBKTNV-1">
          <mxGeometry x="-360" y="610" width="120" height="80" as="geometry" />
        </mxCell>
        <mxCell id="z9Loh3sXfeO9TU2HBYBj-26" style="edgeStyle=orthogonalEdgeStyle;rounded=0;orthogonalLoop=1;jettySize=auto;html=1;exitX=0.5;exitY=1;exitDx=0;exitDy=0;" edge="1" parent="WIyWlLk6GJQsqaUBKTNV-1" source="z9Loh3sXfeO9TU2HBYBj-27">
          <mxGeometry relative="1" as="geometry">
            <mxPoint x="-495" y="730" as="targetPoint" />
            <Array as="points">
              <mxPoint x="-767" y="660" />
              <mxPoint x="-495" y="660" />
            </Array>
          </mxGeometry>
        </mxCell>
        <mxCell id="z9Loh3sXfeO9TU2HBYBj-27" value="Open Upgrade Checkout with discount applied based on remaining days" style="rounded=1;whiteSpace=wrap;html=1;" vertex="1" parent="WIyWlLk6GJQsqaUBKTNV-1">
          <mxGeometry x="-827" y="610" width="120" height="80" as="geometry" />
        </mxCell>
        <mxCell id="z9Loh3sXfeO9TU2HBYBj-47" style="edgeStyle=orthogonalEdgeStyle;rounded=0;orthogonalLoop=1;jettySize=auto;html=1;" edge="1" parent="WIyWlLk6GJQsqaUBKTNV-1" source="z9Loh3sXfeO9TU2HBYBj-39">
          <mxGeometry relative="1" as="geometry">
            <mxPoint x="-505" y="900" as="targetPoint" />
          </mxGeometry>
        </mxCell>
        <mxCell id="z9Loh3sXfeO9TU2HBYBj-39" value="Set payment data in redis/ JWT, create order and payment, finally&lt;br&gt;redirect to merchant checkout" style="rounded=1;whiteSpace=wrap;html=1;" vertex="1" parent="WIyWlLk6GJQsqaUBKTNV-1">
          <mxGeometry x="-590" y="730" width="170" height="90" as="geometry" />
        </mxCell>
        <mxCell id="z9Loh3sXfeO9TU2HBYBj-45" style="edgeStyle=orthogonalEdgeStyle;rounded=0;orthogonalLoop=1;jettySize=auto;html=1;exitX=1;exitY=0.5;exitDx=0;exitDy=0;" edge="1" parent="WIyWlLk6GJQsqaUBKTNV-1" source="z9Loh3sXfeO9TU2HBYBj-59">
          <mxGeometry relative="1" as="geometry">
            <mxPoint x="-240" y="1140" as="sourcePoint" />
            <mxPoint x="-240" y="640" as="targetPoint" />
            <Array as="points">
              <mxPoint x="-60" y="1139" />
              <mxPoint x="-60" y="640" />
            </Array>
          </mxGeometry>
        </mxCell>
        <mxCell id="z9Loh3sXfeO9TU2HBYBj-50" style="edgeStyle=orthogonalEdgeStyle;rounded=0;orthogonalLoop=1;jettySize=auto;html=1;" edge="1" parent="WIyWlLk6GJQsqaUBKTNV-1" source="z9Loh3sXfeO9TU2HBYBj-48">
          <mxGeometry relative="1" as="geometry">
            <mxPoint x="-680" y="1000" as="targetPoint" />
          </mxGeometry>
        </mxCell>
        <mxCell id="z9Loh3sXfeO9TU2HBYBj-56" style="edgeStyle=orthogonalEdgeStyle;rounded=0;orthogonalLoop=1;jettySize=auto;html=1;" edge="1" parent="WIyWlLk6GJQsqaUBKTNV-1" source="z9Loh3sXfeO9TU2HBYBj-48">
          <mxGeometry relative="1" as="geometry">
            <mxPoint x="-330" y="1000" as="targetPoint" />
          </mxGeometry>
        </mxCell>
        <mxCell id="z9Loh3sXfeO9TU2HBYBj-48" value="Payment Success" style="rhombus;whiteSpace=wrap;html=1;" vertex="1" parent="WIyWlLk6GJQsqaUBKTNV-1">
          <mxGeometry x="-545" y="900" width="80" height="80" as="geometry" />
        </mxCell>
        <mxCell id="z9Loh3sXfeO9TU2HBYBj-201" style="edgeStyle=orthogonalEdgeStyle;rounded=0;orthogonalLoop=1;jettySize=auto;html=1;entryX=0;entryY=0.25;entryDx=0;entryDy=0;" edge="1" parent="WIyWlLk6GJQsqaUBKTNV-1" source="z9Loh3sXfeO9TU2HBYBj-52">
          <mxGeometry relative="1" as="geometry">
            <mxPoint x="1060" y="1695" as="targetPoint" />
            <Array as="points">
              <mxPoint x="-680" y="1540" />
              <mxPoint x="220" y="1540" />
              <mxPoint x="220" y="1695" />
            </Array>
          </mxGeometry>
        </mxCell>
        <mxCell id="z9Loh3sXfeO9TU2HBYBj-52" value="Payment Success Response/ Close window/ Reload App" style="rounded=1;whiteSpace=wrap;html=1;" vertex="1" parent="WIyWlLk6GJQsqaUBKTNV-1">
          <mxGeometry x="-740" y="1000" width="120" height="60" as="geometry" />
        </mxCell>
        <mxCell id="z9Loh3sXfeO9TU2HBYBj-54" value="Yes" style="text;html=1;strokeColor=none;fillColor=none;align=center;verticalAlign=middle;whiteSpace=wrap;rounded=0;" vertex="1" parent="WIyWlLk6GJQsqaUBKTNV-1">
          <mxGeometry x="-660" y="910" width="60" height="30" as="geometry" />
        </mxCell>
        <mxCell id="z9Loh3sXfeO9TU2HBYBj-57" style="edgeStyle=orthogonalEdgeStyle;rounded=0;orthogonalLoop=1;jettySize=auto;html=1;" edge="1" parent="WIyWlLk6GJQsqaUBKTNV-1" source="z9Loh3sXfeO9TU2HBYBj-58" target="z9Loh3sXfeO9TU2HBYBj-59">
          <mxGeometry relative="1" as="geometry">
            <mxPoint x="-320" y="1099" as="targetPoint" />
            <Array as="points">
              <mxPoint x="-307" y="1129" />
              <mxPoint x="-307" y="1129" />
            </Array>
          </mxGeometry>
        </mxCell>
        <mxCell id="z9Loh3sXfeO9TU2HBYBj-58" value="Payment failed" style="rounded=1;whiteSpace=wrap;html=1;" vertex="1" parent="WIyWlLk6GJQsqaUBKTNV-1">
          <mxGeometry x="-380" y="999" width="120" height="60" as="geometry" />
        </mxCell>
        <mxCell id="z9Loh3sXfeO9TU2HBYBj-59" value="Click Retry Payment" style="rounded=1;whiteSpace=wrap;html=1;" vertex="1" parent="WIyWlLk6GJQsqaUBKTNV-1">
          <mxGeometry x="-367" y="1109" width="120" height="60" as="geometry" />
        </mxCell>
        <mxCell id="z9Loh3sXfeO9TU2HBYBj-60" value="No" style="text;html=1;strokeColor=none;fillColor=none;align=center;verticalAlign=middle;whiteSpace=wrap;rounded=0;" vertex="1" parent="WIyWlLk6GJQsqaUBKTNV-1">
          <mxGeometry x="-420" y="910" width="60" height="30" as="geometry" />
        </mxCell>
        <mxCell id="z9Loh3sXfeO9TU2HBYBj-71" style="edgeStyle=orthogonalEdgeStyle;rounded=0;orthogonalLoop=1;jettySize=auto;html=1;entryX=1;entryY=0;entryDx=0;entryDy=0;" edge="1" parent="WIyWlLk6GJQsqaUBKTNV-1" source="z9Loh3sXfeO9TU2HBYBj-61" target="z9Loh3sXfeO9TU2HBYBj-72">
          <mxGeometry relative="1" as="geometry">
            <mxPoint x="-450.0000000000002" y="505" as="targetPoint" />
            <Array as="points">
              <mxPoint x="-30" y="710" />
              <mxPoint x="-30" y="450" />
              <mxPoint x="-507" y="450" />
            </Array>
          </mxGeometry>
        </mxCell>
        <mxCell id="z9Loh3sXfeO9TU2HBYBj-76" style="edgeStyle=orthogonalEdgeStyle;rounded=0;orthogonalLoop=1;jettySize=auto;html=1;" edge="1" parent="WIyWlLk6GJQsqaUBKTNV-1" source="z9Loh3sXfeO9TU2HBYBj-61" target="z9Loh3sXfeO9TU2HBYBj-75">
          <mxGeometry relative="1" as="geometry" />
        </mxCell>
        <mxCell id="z9Loh3sXfeO9TU2HBYBj-61" value="Show license info window with remaining days and option to upgrade extend" style="rounded=1;whiteSpace=wrap;html=1;" vertex="1" parent="WIyWlLk6GJQsqaUBKTNV-1">
          <mxGeometry x="10" y="660" width="230" height="100" as="geometry" />
        </mxCell>
        <mxCell id="z9Loh3sXfeO9TU2HBYBj-73" value="Upgrade" style="text;html=1;strokeColor=none;fillColor=none;align=center;verticalAlign=middle;whiteSpace=wrap;rounded=0;" vertex="1" parent="WIyWlLk6GJQsqaUBKTNV-1">
          <mxGeometry x="-740" y="550" width="60" height="30" as="geometry" />
        </mxCell>
        <mxCell id="z9Loh3sXfeO9TU2HBYBj-74" value="Extend" style="text;html=1;strokeColor=none;fillColor=none;align=center;verticalAlign=middle;whiteSpace=wrap;rounded=0;" vertex="1" parent="WIyWlLk6GJQsqaUBKTNV-1">
          <mxGeometry x="-390" y="550" width="60" height="30" as="geometry" />
        </mxCell>
        <mxCell id="z9Loh3sXfeO9TU2HBYBj-78" style="edgeStyle=orthogonalEdgeStyle;rounded=0;orthogonalLoop=1;jettySize=auto;html=1;" edge="1" parent="WIyWlLk6GJQsqaUBKTNV-1" source="z9Loh3sXfeO9TU2HBYBj-75" target="z9Loh3sXfeO9TU2HBYBj-77">
          <mxGeometry relative="1" as="geometry" />
        </mxCell>
        <mxCell id="z9Loh3sXfeO9TU2HBYBj-75" value="Click offline payments" style="rounded=1;whiteSpace=wrap;html=1;" vertex="1" parent="WIyWlLk6GJQsqaUBKTNV-1">
          <mxGeometry x="10" y="820" width="230" height="100" as="geometry" />
        </mxCell>
        <mxCell id="z9Loh3sXfeO9TU2HBYBj-77" value="Show offline payment details" style="rounded=1;whiteSpace=wrap;html=1;" vertex="1" parent="WIyWlLk6GJQsqaUBKTNV-1">
          <mxGeometry x="10" y="970" width="230" height="100" as="geometry" />
        </mxCell>
        <mxCell id="z9Loh3sXfeO9TU2HBYBj-84" style="edgeStyle=orthogonalEdgeStyle;rounded=0;orthogonalLoop=1;jettySize=auto;html=1;" edge="1" parent="WIyWlLk6GJQsqaUBKTNV-1" source="z9Loh3sXfeO9TU2HBYBj-81">
          <mxGeometry relative="1" as="geometry">
            <mxPoint x="465" y="825" as="targetPoint" />
          </mxGeometry>
        </mxCell>
        <mxCell id="z9Loh3sXfeO9TU2HBYBj-81" value="select license and enter device id&lt;br&gt;and hit attach license API" style="rounded=1;whiteSpace=wrap;html=1;" vertex="1" parent="WIyWlLk6GJQsqaUBKTNV-1">
          <mxGeometry x="350" y="655" width="230" height="110" as="geometry" />
        </mxCell>
        <mxCell id="z9Loh3sXfeO9TU2HBYBj-87" style="edgeStyle=orthogonalEdgeStyle;rounded=0;orthogonalLoop=1;jettySize=auto;html=1;" edge="1" parent="WIyWlLk6GJQsqaUBKTNV-1" source="z9Loh3sXfeO9TU2HBYBj-85">
          <mxGeometry relative="1" as="geometry">
            <mxPoint x="330" y="940" as="targetPoint" />
          </mxGeometry>
        </mxCell>
        <mxCell id="z9Loh3sXfeO9TU2HBYBj-91" style="edgeStyle=orthogonalEdgeStyle;rounded=0;orthogonalLoop=1;jettySize=auto;html=1;entryX=0.5;entryY=0;entryDx=0;entryDy=0;" edge="1" parent="WIyWlLk6GJQsqaUBKTNV-1" source="z9Loh3sXfeO9TU2HBYBj-85" target="z9Loh3sXfeO9TU2HBYBj-92">
          <mxGeometry relative="1" as="geometry">
            <mxPoint x="630" y="920" as="targetPoint" />
            <Array as="points">
              <mxPoint x="630" y="880" />
            </Array>
          </mxGeometry>
        </mxCell>
        <mxCell id="z9Loh3sXfeO9TU2HBYBj-85" value="API response&amp;nbsp;" style="rhombus;whiteSpace=wrap;html=1;" vertex="1" parent="WIyWlLk6GJQsqaUBKTNV-1">
          <mxGeometry x="370" y="830" width="190" height="100" as="geometry" />
        </mxCell>
        <mxCell id="z9Loh3sXfeO9TU2HBYBj-88" value="Show license attach success/ Close window reload app" style="rounded=1;whiteSpace=wrap;html=1;" vertex="1" parent="WIyWlLk6GJQsqaUBKTNV-1">
          <mxGeometry x="290" y="940" width="120" height="60" as="geometry" />
        </mxCell>
        <mxCell id="z9Loh3sXfeO9TU2HBYBj-89" value="Success" style="text;html=1;strokeColor=none;fillColor=none;align=center;verticalAlign=middle;whiteSpace=wrap;rounded=0;" vertex="1" parent="WIyWlLk6GJQsqaUBKTNV-1">
          <mxGeometry x="310" y="855" width="60" height="30" as="geometry" />
        </mxCell>
        <mxCell id="z9Loh3sXfeO9TU2HBYBj-92" value="Show license failure" style="rounded=1;whiteSpace=wrap;html=1;" vertex="1" parent="WIyWlLk6GJQsqaUBKTNV-1">
          <mxGeometry x="570" y="939" width="120" height="60" as="geometry" />
        </mxCell>
        <mxCell id="z9Loh3sXfeO9TU2HBYBj-93" value="Failure" style="text;html=1;strokeColor=none;fillColor=none;align=center;verticalAlign=middle;whiteSpace=wrap;rounded=0;" vertex="1" parent="WIyWlLk6GJQsqaUBKTNV-1">
          <mxGeometry x="580" y="855" width="60" height="30" as="geometry" />
        </mxCell>
        <mxCell id="z9Loh3sXfeO9TU2HBYBj-100" style="edgeStyle=orthogonalEdgeStyle;rounded=0;orthogonalLoop=1;jettySize=auto;html=1;exitX=0.5;exitY=1;exitDx=0;exitDy=0;entryX=0.5;entryY=0;entryDx=0;entryDy=0;" edge="1" parent="WIyWlLk6GJQsqaUBKTNV-1" source="z9Loh3sXfeO9TU2HBYBj-72" target="z9Loh3sXfeO9TU2HBYBj-97">
          <mxGeometry relative="1" as="geometry" />
        </mxCell>
        <mxCell id="z9Loh3sXfeO9TU2HBYBj-72" value="Extend/Upgrade" style="rhombus;whiteSpace=wrap;html=1;" vertex="1" parent="WIyWlLk6GJQsqaUBKTNV-1">
          <mxGeometry x="-680" y="350" width="230" height="100" as="geometry" />
        </mxCell>
        <mxCell id="z9Loh3sXfeO9TU2HBYBj-96" value="" style="edgeStyle=orthogonalEdgeStyle;rounded=0;orthogonalLoop=1;jettySize=auto;html=1;endArrow=none;" edge="1" parent="WIyWlLk6GJQsqaUBKTNV-1" source="z9Loh3sXfeO9TU2HBYBj-8" target="z9Loh3sXfeO9TU2HBYBj-72">
          <mxGeometry relative="1" as="geometry">
            <mxPoint x="10" y="370" as="sourcePoint" />
            <mxPoint x="-564.9999999999998" y="480" as="targetPoint" />
            <Array as="points">
              <mxPoint x="-565" y="320" />
            </Array>
          </mxGeometry>
        </mxCell>
        <mxCell id="z9Loh3sXfeO9TU2HBYBj-101" style="edgeStyle=orthogonalEdgeStyle;rounded=0;orthogonalLoop=1;jettySize=auto;html=1;" edge="1" parent="WIyWlLk6GJQsqaUBKTNV-1" source="z9Loh3sXfeO9TU2HBYBj-97" target="z9Loh3sXfeO9TU2HBYBj-25">
          <mxGeometry relative="1" as="geometry">
            <Array as="points">
              <mxPoint x="-565" y="580" />
              <mxPoint x="-300" y="580" />
            </Array>
          </mxGeometry>
        </mxCell>
        <mxCell id="z9Loh3sXfeO9TU2HBYBj-139" style="edgeStyle=orthogonalEdgeStyle;rounded=0;orthogonalLoop=1;jettySize=auto;html=1;entryX=0.75;entryY=1;entryDx=0;entryDy=0;" edge="1" parent="WIyWlLk6GJQsqaUBKTNV-1" source="z9Loh3sXfeO9TU2HBYBj-97" target="z9Loh3sXfeO9TU2HBYBj-138">
          <mxGeometry relative="1" as="geometry">
            <Array as="points">
              <mxPoint x="-40" y="510" />
              <mxPoint x="-40" y="1110" />
              <mxPoint x="1102" y="1110" />
            </Array>
          </mxGeometry>
        </mxCell>
        <mxCell id="z9Loh3sXfeO9TU2HBYBj-97" value="Is user logged in" style="rhombus;whiteSpace=wrap;html=1;" vertex="1" parent="WIyWlLk6GJQsqaUBKTNV-1">
          <mxGeometry x="-665" y="470" width="200" height="80" as="geometry" />
        </mxCell>
        <mxCell id="z9Loh3sXfeO9TU2HBYBj-104" value="Yes" style="text;html=1;strokeColor=none;fillColor=none;align=center;verticalAlign=middle;whiteSpace=wrap;rounded=0;" vertex="1" parent="WIyWlLk6GJQsqaUBKTNV-1">
          <mxGeometry x="-620" y="550" width="60" height="30" as="geometry" />
        </mxCell>
        <mxCell id="z9Loh3sXfeO9TU2HBYBj-109" style="edgeStyle=orthogonalEdgeStyle;rounded=0;orthogonalLoop=1;jettySize=auto;html=1;" edge="1" parent="WIyWlLk6GJQsqaUBKTNV-1" source="z9Loh3sXfeO9TU2HBYBj-107" target="z9Loh3sXfeO9TU2HBYBj-108">
          <mxGeometry relative="1" as="geometry" />
        </mxCell>
        <mxCell id="z9Loh3sXfeO9TU2HBYBj-107" value="Plans webview/ page with plan details" style="rounded=1;whiteSpace=wrap;html=1;" vertex="1" parent="WIyWlLk6GJQsqaUBKTNV-1">
          <mxGeometry x="1770" y="340" width="200" height="110" as="geometry" />
        </mxCell>
        <mxCell id="z9Loh3sXfeO9TU2HBYBj-122" style="edgeStyle=orthogonalEdgeStyle;rounded=0;orthogonalLoop=1;jettySize=auto;html=1;" edge="1" parent="WIyWlLk6GJQsqaUBKTNV-1" source="z9Loh3sXfeO9TU2HBYBj-108" target="z9Loh3sXfeO9TU2HBYBj-121">
          <mxGeometry relative="1" as="geometry" />
        </mxCell>
        <mxCell id="z9Loh3sXfeO9TU2HBYBj-108" value="Select plans-&lt;br&gt;SIngle- Mobile, Desktop, Mobile+Discount&lt;br&gt;Multiple" style="rounded=1;whiteSpace=wrap;html=1;" vertex="1" parent="WIyWlLk6GJQsqaUBKTNV-1">
          <mxGeometry x="1771" y="535" width="200" height="110" as="geometry" />
        </mxCell>
        <mxCell id="z9Loh3sXfeO9TU2HBYBj-119" style="edgeStyle=orthogonalEdgeStyle;rounded=0;orthogonalLoop=1;jettySize=auto;html=1;entryX=1;entryY=0.5;entryDx=0;entryDy=0;" edge="1" parent="WIyWlLk6GJQsqaUBKTNV-1" source="z9Loh3sXfeO9TU2HBYBj-108" target="z9Loh3sXfeO9TU2HBYBj-17">
          <mxGeometry relative="1" as="geometry">
            <mxPoint x="1710" y="762.5" as="sourcePoint" />
            <Array as="points">
              <mxPoint x="1315" y="570" />
              <mxPoint x="1315" y="520" />
            </Array>
          </mxGeometry>
        </mxCell>
        <mxCell id="z9Loh3sXfeO9TU2HBYBj-129" style="edgeStyle=orthogonalEdgeStyle;rounded=0;orthogonalLoop=1;jettySize=auto;html=1;" edge="1" parent="WIyWlLk6GJQsqaUBKTNV-1" source="z9Loh3sXfeO9TU2HBYBj-121">
          <mxGeometry relative="1" as="geometry">
            <mxPoint x="1435.0000000000005" y="920" as="targetPoint" />
          </mxGeometry>
        </mxCell>
        <mxCell id="z9Loh3sXfeO9TU2HBYBj-121" value="Select SIngle Plan and checkout" style="rounded=1;whiteSpace=wrap;html=1;" vertex="1" parent="WIyWlLk6GJQsqaUBKTNV-1">
          <mxGeometry x="1771" y="695" width="200" height="110" as="geometry" />
        </mxCell>
        <mxCell id="z9Loh3sXfeO9TU2HBYBj-126" style="edgeStyle=orthogonalEdgeStyle;rounded=0;orthogonalLoop=1;jettySize=auto;html=1;" edge="1" parent="WIyWlLk6GJQsqaUBKTNV-1" source="z9Loh3sXfeO9TU2HBYBj-123" target="z9Loh3sXfeO9TU2HBYBj-125">
          <mxGeometry relative="1" as="geometry" />
        </mxCell>
        <mxCell id="z9Loh3sXfeO9TU2HBYBj-123" value="Open build your own combo window" style="rounded=1;whiteSpace=wrap;html=1;" vertex="1" parent="WIyWlLk6GJQsqaUBKTNV-1">
          <mxGeometry x="690" y="640" width="230" height="100" as="geometry" />
        </mxCell>
        <mxCell id="z9Loh3sXfeO9TU2HBYBj-128" style="edgeStyle=orthogonalEdgeStyle;rounded=0;orthogonalLoop=1;jettySize=auto;html=1;" edge="1" parent="WIyWlLk6GJQsqaUBKTNV-1" source="z9Loh3sXfeO9TU2HBYBj-125">
          <mxGeometry relative="1" as="geometry">
            <mxPoint x="1435.0000000000005" y="920" as="targetPoint" />
          </mxGeometry>
        </mxCell>
        <mxCell id="z9Loh3sXfeO9TU2HBYBj-125" value="Select Licenses and quantity and go to checkout" style="rounded=1;whiteSpace=wrap;html=1;" vertex="1" parent="WIyWlLk6GJQsqaUBKTNV-1">
          <mxGeometry x="690" y="780" width="230" height="100" as="geometry" />
        </mxCell>
        <mxCell id="z9Loh3sXfeO9TU2HBYBj-134" style="edgeStyle=orthogonalEdgeStyle;rounded=0;orthogonalLoop=1;jettySize=auto;html=1;entryX=0;entryY=0.5;entryDx=0;entryDy=0;" edge="1" parent="WIyWlLk6GJQsqaUBKTNV-1" source="z9Loh3sXfeO9TU2HBYBj-130" target="z9Loh3sXfeO9TU2HBYBj-135">
          <mxGeometry relative="1" as="geometry">
            <mxPoint x="1655.0000000000005" y="995" as="targetPoint" />
          </mxGeometry>
        </mxCell>
        <mxCell id="z9Loh3sXfeO9TU2HBYBj-137" style="edgeStyle=orthogonalEdgeStyle;rounded=0;orthogonalLoop=1;jettySize=auto;html=1;" edge="1" parent="WIyWlLk6GJQsqaUBKTNV-1" source="z9Loh3sXfeO9TU2HBYBj-130">
          <mxGeometry relative="1" as="geometry">
            <mxPoint x="1149.9999999999995" y="995" as="targetPoint" />
          </mxGeometry>
        </mxCell>
        <mxCell id="z9Loh3sXfeO9TU2HBYBj-130" value="Is User logged in" style="rhombus;whiteSpace=wrap;html=1;" vertex="1" parent="WIyWlLk6GJQsqaUBKTNV-1">
          <mxGeometry x="1250" y="920" width="370" height="150" as="geometry" />
        </mxCell>
        <mxCell id="z9Loh3sXfeO9TU2HBYBj-146" style="edgeStyle=orthogonalEdgeStyle;rounded=0;orthogonalLoop=1;jettySize=auto;html=1;entryX=0;entryY=0.25;entryDx=0;entryDy=0;" edge="1" parent="WIyWlLk6GJQsqaUBKTNV-1" source="z9Loh3sXfeO9TU2HBYBj-135" target="z9Loh3sXfeO9TU2HBYBj-143">
          <mxGeometry relative="1" as="geometry">
            <mxPoint x="2080" y="880" as="targetPoint" />
            <Array as="points">
              <mxPoint x="2080" y="995" />
              <mxPoint x="2080" y="875" />
            </Array>
          </mxGeometry>
        </mxCell>
        <mxCell id="z9Loh3sXfeO9TU2HBYBj-135" value="Show checkout page with selected plan details, taxes and coupons" style="rounded=1;whiteSpace=wrap;html=1;" vertex="1" parent="WIyWlLk6GJQsqaUBKTNV-1">
          <mxGeometry x="1770" y="930" width="200" height="130" as="geometry" />
        </mxCell>
        <mxCell id="z9Loh3sXfeO9TU2HBYBj-138" value="Open login page and add plan data to session storage" style="rounded=1;whiteSpace=wrap;html=1;" vertex="1" parent="WIyWlLk6GJQsqaUBKTNV-1">
          <mxGeometry x="960" y="930" width="190" height="130" as="geometry" />
        </mxCell>
        <mxCell id="z9Loh3sXfeO9TU2HBYBj-140" value="No" style="text;html=1;strokeColor=none;fillColor=none;align=center;verticalAlign=middle;whiteSpace=wrap;rounded=0;" vertex="1" parent="WIyWlLk6GJQsqaUBKTNV-1">
          <mxGeometry x="-260" y="480" width="60" height="30" as="geometry" />
        </mxCell>
        <mxCell id="z9Loh3sXfeO9TU2HBYBj-141" value="No" style="text;html=1;strokeColor=none;fillColor=none;align=center;verticalAlign=middle;whiteSpace=wrap;rounded=0;" vertex="1" parent="WIyWlLk6GJQsqaUBKTNV-1">
          <mxGeometry x="1170" y="965" width="60" height="30" as="geometry" />
        </mxCell>
        <mxCell id="z9Loh3sXfeO9TU2HBYBj-142" value="Yes" style="text;html=1;strokeColor=none;fillColor=none;align=center;verticalAlign=middle;whiteSpace=wrap;rounded=0;" vertex="1" parent="WIyWlLk6GJQsqaUBKTNV-1">
          <mxGeometry x="1670" y="965" width="60" height="30" as="geometry" />
        </mxCell>
        <mxCell id="z9Loh3sXfeO9TU2HBYBj-148" style="edgeStyle=orthogonalEdgeStyle;rounded=0;orthogonalLoop=1;jettySize=auto;html=1;" edge="1" parent="WIyWlLk6GJQsqaUBKTNV-1" source="z9Loh3sXfeO9TU2HBYBj-143">
          <mxGeometry relative="1" as="geometry">
            <mxPoint x="2240" y="1030" as="targetPoint" />
          </mxGeometry>
        </mxCell>
        <mxCell id="z9Loh3sXfeO9TU2HBYBj-143" value="Click Buy plan" style="whiteSpace=wrap;html=1;rounded=1;" vertex="1" parent="WIyWlLk6GJQsqaUBKTNV-1">
          <mxGeometry x="2150" y="845" width="180" height="120" as="geometry" />
        </mxCell>
        <mxCell id="z9Loh3sXfeO9TU2HBYBj-189" style="edgeStyle=orthogonalEdgeStyle;rounded=0;orthogonalLoop=1;jettySize=auto;html=1;" edge="1" parent="WIyWlLk6GJQsqaUBKTNV-1" source="z9Loh3sXfeO9TU2HBYBj-171" target="z9Loh3sXfeO9TU2HBYBj-188">
          <mxGeometry relative="1" as="geometry" />
        </mxCell>
        <mxCell id="z9Loh3sXfeO9TU2HBYBj-171" value="Initialize payment, set plan data in redis, create order, payment and redirect to merchant checkout" style="whiteSpace=wrap;html=1;rounded=1;" vertex="1" parent="WIyWlLk6GJQsqaUBKTNV-1">
          <mxGeometry x="2150" y="1030" width="180" height="120" as="geometry" />
        </mxCell>
        <mxCell id="z9Loh3sXfeO9TU2HBYBj-173" style="edgeStyle=orthogonalEdgeStyle;rounded=0;orthogonalLoop=1;jettySize=auto;html=1;" edge="1" parent="WIyWlLk6GJQsqaUBKTNV-1" source="z9Loh3sXfeO9TU2HBYBj-175">
          <mxGeometry relative="1" as="geometry">
            <mxPoint x="2070" y="1520" as="targetPoint" />
          </mxGeometry>
        </mxCell>
        <mxCell id="z9Loh3sXfeO9TU2HBYBj-174" style="edgeStyle=orthogonalEdgeStyle;rounded=0;orthogonalLoop=1;jettySize=auto;html=1;" edge="1" parent="WIyWlLk6GJQsqaUBKTNV-1" source="z9Loh3sXfeO9TU2HBYBj-175">
          <mxGeometry relative="1" as="geometry">
            <mxPoint x="2420" y="1520" as="targetPoint" />
          </mxGeometry>
        </mxCell>
        <mxCell id="z9Loh3sXfeO9TU2HBYBj-175" value="Merchant Response" style="rhombus;whiteSpace=wrap;html=1;" vertex="1" parent="WIyWlLk6GJQsqaUBKTNV-1">
          <mxGeometry x="2200" y="1390" width="80" height="80" as="geometry" />
        </mxCell>
        <mxCell id="z9Loh3sXfeO9TU2HBYBj-197" style="edgeStyle=orthogonalEdgeStyle;rounded=0;orthogonalLoop=1;jettySize=auto;html=1;" edge="1" parent="WIyWlLk6GJQsqaUBKTNV-1" source="z9Loh3sXfeO9TU2HBYBj-177">
          <mxGeometry relative="1" as="geometry">
            <mxPoint x="1120" y="1740" as="targetPoint" />
            <Array as="points">
              <mxPoint x="2410" y="1770" />
              <mxPoint x="1120" y="1770" />
            </Array>
          </mxGeometry>
        </mxCell>
        <mxCell id="z9Loh3sXfeO9TU2HBYBj-177" value="Payment Success Response/ Close window/ Reload App" style="rounded=1;whiteSpace=wrap;html=1;" vertex="1" parent="WIyWlLk6GJQsqaUBKTNV-1">
          <mxGeometry x="2350" y="1519" width="120" height="60" as="geometry" />
        </mxCell>
        <mxCell id="z9Loh3sXfeO9TU2HBYBj-178" value="Yes" style="text;html=1;strokeColor=none;fillColor=none;align=center;verticalAlign=middle;whiteSpace=wrap;rounded=0;" vertex="1" parent="WIyWlLk6GJQsqaUBKTNV-1">
          <mxGeometry x="2090" y="1430" width="60" height="30" as="geometry" />
        </mxCell>
        <mxCell id="z9Loh3sXfeO9TU2HBYBj-193" style="edgeStyle=orthogonalEdgeStyle;rounded=0;orthogonalLoop=1;jettySize=auto;html=1;" edge="1" parent="WIyWlLk6GJQsqaUBKTNV-1" target="z9Loh3sXfeO9TU2HBYBj-135">
          <mxGeometry relative="1" as="geometry">
            <mxPoint x="2120" y="1659" as="sourcePoint" />
          </mxGeometry>
        </mxCell>
        <mxCell id="z9Loh3sXfeO9TU2HBYBj-182" value="No" style="text;html=1;strokeColor=none;fillColor=none;align=center;verticalAlign=middle;whiteSpace=wrap;rounded=0;" vertex="1" parent="WIyWlLk6GJQsqaUBKTNV-1">
          <mxGeometry x="2330" y="1430" width="60" height="30" as="geometry" />
        </mxCell>
        <mxCell id="z9Loh3sXfeO9TU2HBYBj-190" style="edgeStyle=orthogonalEdgeStyle;rounded=0;orthogonalLoop=1;jettySize=auto;html=1;entryX=0.5;entryY=0;entryDx=0;entryDy=0;" edge="1" parent="WIyWlLk6GJQsqaUBKTNV-1" source="z9Loh3sXfeO9TU2HBYBj-188" target="z9Loh3sXfeO9TU2HBYBj-175">
          <mxGeometry relative="1" as="geometry" />
        </mxCell>
        <mxCell id="z9Loh3sXfeO9TU2HBYBj-188" value="Await merchant response" style="whiteSpace=wrap;html=1;rounded=1;" vertex="1" parent="WIyWlLk6GJQsqaUBKTNV-1">
          <mxGeometry x="2150" y="1220" width="180" height="90" as="geometry" />
        </mxCell>
        <mxCell id="z9Loh3sXfeO9TU2HBYBj-205" style="edgeStyle=orthogonalEdgeStyle;rounded=0;orthogonalLoop=1;jettySize=auto;html=1;" edge="1" parent="WIyWlLk6GJQsqaUBKTNV-1" source="z9Loh3sXfeO9TU2HBYBj-206" target="z9Loh3sXfeO9TU2HBYBj-207">
          <mxGeometry relative="1" as="geometry">
            <mxPoint x="2077" y="1619" as="targetPoint" />
            <Array as="points">
              <mxPoint x="2090" y="1649" />
              <mxPoint x="2090" y="1649" />
            </Array>
          </mxGeometry>
        </mxCell>
        <mxCell id="z9Loh3sXfeO9TU2HBYBj-206" value="Payment failed" style="rounded=1;whiteSpace=wrap;html=1;" vertex="1" parent="WIyWlLk6GJQsqaUBKTNV-1">
          <mxGeometry x="2017" y="1519" width="120" height="60" as="geometry" />
        </mxCell>
        <mxCell id="z9Loh3sXfeO9TU2HBYBj-207" value="Click Retry Payment" style="rounded=1;whiteSpace=wrap;html=1;" vertex="1" parent="WIyWlLk6GJQsqaUBKTNV-1">
          <mxGeometry x="2030" y="1629" width="120" height="60" as="geometry" />
        </mxCell>
        <mxCell id="z9Loh3sXfeO9TU2HBYBj-210" value="Close" style="ellipse;whiteSpace=wrap;html=1;" vertex="1" parent="WIyWlLk6GJQsqaUBKTNV-1">
          <mxGeometry x="1060" y="1660" width="120" height="70" as="geometry" />
        </mxCell>
      </root>
    </mxGraphModel>
  </diagram>
</mxfile>
